<svg xmlns="http://www.w3.org/2000/svg" width="223" height="42" viewBox="0 0 223 42">
    <g fill="none" fill-rule="nonzero">
        <path fill="#FFF" d="M135.323 36.303c-3.657 0-6.416-3.062-6.416-7.123v-.073c0-4.02 2.759-7.052 6.416-7.052 2.212 0 3.953.877 5.606 2.834l4.75-3.668c-2.485-3.271-5.847-4.863-10.285-4.863-7.43 0-13.032 5.513-13.032 12.822v.07c0 3.53 1.32 6.776 3.728 9.139 2.368 2.329 5.57 3.611 9.022 3.611 4.656 0 7.988-1.633 10.747-5.285l-4.735-3.364c-1.532 1.781-3.138 2.952-5.801 2.952zM166.087 32.268c2.273-.976 4.971-3.066 4.971-7.497V24.7c0-2.41-.699-4.268-2.126-5.676-1.715-1.767-4.392-2.665-7.961-2.665h-11.565v24.758h6.282v-7.712h3.6l5.072 7.712h7.213l-5.88-8.679.394-.17zm-1.348-7.06c0 2.08-1.574 3.372-4.093 3.372h-4.958v-6.816h4.923c2.622 0 4.128 1.228 4.128 3.371v.073zM180.953 31.076h12.218v-4.86h-12.218v-4.562h13.491v-5.296h-19.768v24.758h19.95v-5.297h-13.673zM219.335 19.804c-2.485-2.255-6.068-3.446-10.36-3.446h-9.472v24.758h9.325c4.313 0 7.93-1.228 10.46-3.554 2.425-2.229 3.712-5.302 3.712-8.899v-.07c-.005-3.579-1.271-6.617-3.665-8.789zm-2.876 8.966c0 4.19-2.828 6.793-7.375 6.793h-3.23V21.907h3.23c4.55 0 7.375 2.603 7.375 6.794v.069zM106.747 16.358c-6.77 0-11.872 5.523-11.872 12.846 0 7.415 5.258 12.796 12.507 12.796 3.933 0 7.065-1.347 9.561-4.116l-2.5-2.234c-2.175 1.993-4.275 2.84-6.965 2.84-4.254 0-7.338-2.732-8.048-7.128l-.127-.781h19.025c.024-.309.044-.623.044-.944 0-3.685-1.043-7.01-2.938-9.366-2.056-2.557-5.061-3.913-8.687-3.913zm-7.472 11.657l.102-.762c.597-4.49 3.472-7.392 7.323-7.392 3.962 0 6.713 2.84 7.178 7.414l.076.74H99.275zM76.636 16.536c-5.698 0-11.465 4.373-11.465 12.733C65.171 35.601 69.108 42 76.636 42c3.426 0 6.162-1.486 8.367-4.543l1.244-1.712v5.775h4.638V4.42h-4.638v17.93l-1.217-1.54c-2.278-2.876-5.021-4.275-8.394-4.275zm9.702 12.733c0 5.1-3.554 8.951-8.265 8.951-4.76 0-8.214-3.764-8.214-8.95 0-5.278 3.377-8.954 8.214-8.954 4.711 0 8.265 3.849 8.265 8.953z"/>
        <path fill="#2DD8A3" d="M39.283 31.478l9.928 10.08h-9.764L23.075 24.935h10.132c4.52 0 8.185-3.721 8.185-8.312 0-4.59-3.665-8.311-8.185-8.311H29.91L21.724 0h11.113C41.88 0 49.21 7.442 49.21 16.623c0 6.741-2.928 12.025-9.926 14.855z"/>
        <path fill="#2970FF" d="M9.928 10.08L0 0h9.763l16.372 16.623H16.007c-4.521 0-8.186 3.721-8.186 8.312 0 4.59 3.665 8.311 8.186 8.311h3.294l8.186 8.312H16.375C7.332 41.558.002 34.115.002 24.935c0-6.741 2.926-12.026 9.926-14.855z"/>
    </g>
</svg>
