<svg xmlns="http://www.w3.org/2000/svg" xmlns:xlink="http://www.w3.org/1999/xlink" width="24" height="24" viewBox="0 0 24 24">
    <defs>
        <path id="a" d="M19.238 17.541l4.41 4.41a1.2 1.2 0 1 1-1.697 1.698l-4.41-4.41A10.754 10.754 0 0 1 10.8 21.6C4.835 21.6 0 16.765 0 10.8 0 4.835 4.835 0 10.8 0c5.965 0 10.8 4.835 10.8 10.8 0 2.55-.884 4.894-2.362 6.741zM10.8 19.2a8.4 8.4 0 1 0 0-16.8 8.4 8.4 0 0 0 0 16.8z"/>
    </defs>
    <g fill="none" fill-rule="evenodd">
        <path d="M0 0h24v24H0z"/>
        <mask id="b" fill="#fff">
            <use xlink:href="#a"/>
        </mask>
        <use fill="#000" fill-rule="nonzero" xlink:href="#a"/>
        <g fill="#5A6D81" mask="url(#b)">
            <path d="M0 0h24v24H0z"/>
        </g>
    </g>
</svg>
